<svg xmlns="http://www.w3.org/2000/svg" width="32" height="32" viewBox="0 0 32 32"><path fill="#000" d="M 16 0 C 7.1691885 0 1.1564823e-018 7.1691003 0 16 C 0 24.8307 7.1691848 32 16 32 C 24.830816 32 32 24.8307 32 16 C 32 7.1691003 24.830812 0 16 0 z M 16 0.96875 C 24.306752 0.96875 31.03125 7.6932003 31.03125 16 C 31.03125 24.3067 24.306748 31.03125 16 31.03125 C 7.6932521 31.03125 0.96875 24.3067 0.96875 16 C 0.96875 7.6932003 7.6932484 0.96875 16 0.96875 z M 9.40625 11 A 0.50004998 0.50004998 0 0 0 9 11.5 L 9 13.4375 A 0.50004998 0.50004998 0 0 0 9 13.59375 L 9 20.5 A 0.50004998 0.50004998 0 0 0 9.5 21 L 23.5 21 A 0.50004998 0.50004998 0 0 0 24 20.5 L 24 13.53125 A 0.50007006 0.50007006 0 0 0 24 13.46875 L 24 11.5 A 0.50004998 0.50004998 0 0 0 23.5 11 L 9.5 11 A 0.50004998 0.50004998 0 0 0 9.40625 11 z M 10 12 L 23 12 L 23 13.1875 L 16.5 16.40625 L 10 13.1875 L 10 12 z M 10 14.3125 L 16.28125 17.40625 A 0.50004998 0.50004998 0 0 0 16.71875 17.40625 L 23 14.3125 L 23 20 L 10 20 L 10 14.3125 z " color="#000" font-family="Sans" font-weight="400" overflow="visible" style="text-indent:0;text-align:start;line-height:normal;text-transform:none;block-progression:tb;marker:none;-inkscape-font-specification:Sans"/></svg>